<svg version="1" xmlns="http://www.w3.org/2000/svg" width="2529.333" height="2529.333" viewBox="0 0 1897.000000 1897.000000"><path d="M943 2.1c-8.4 1.1-9.9 1.6-17.8 5.5-9.8 4.8-17.9 13-22.8 23-2.1 4.2-3.9 8.1-4.1 8.8-.1.6-.6 3.3-1.1 6.1-.4 2.7-.8 54.9-.7 116 .2 121.2-.1 115.3 6.1 127.5 7.8 15.1 22.7 25.6 39.6 27.9 26 3.5 51.6-13.9 58-39.7 1.4-5.6 2-221.5.6-231.5-1.2-9-7.4-21-14.5-28.2C975 5.9 958.5.1 943 2.1zM495.3 34.2c-25.3 3.8-45.1 28-43.8 53.3 1 18.6 1 18.5 48 79 11.4 14.7 25.6 32.9 45 58.2 12.6 16.4 23.2 30 23.5 30.3.3.3 3.2 4.1 6.6 8.5 17 22.5 45.1 58.5 48.3 61.9 13.4 14.3 36.2 19.8 55 13.1 14.9-5.2 27.5-18 32.6-33 2.3-6.8 3.1-20.9 1.5-27.6-2.7-11.3-5.5-16-22-37-4.1-5.3-10-12.9-13-16.9-3-4-6-7.7-6.5-8.4-.6-.6-3.3-4-6-7.6-2.7-3.6-17.8-23.2-33.5-43.5-38.1-49.2-36.4-47-42.8-55.5-3.1-4.1-5.9-7.7-6.2-8-.4-.3-8.8-11.1-18.7-24-10-12.9-19.9-25.3-22-27.6-11.2-12.1-28.6-17.9-46-15.2zM1384.8 35.2c-7.9 2-17.5 7-22.9 12-1.9 1.8-14.6 17.7-28.2 35.3-13.6 17.6-25.3 32.7-26 33.5-.7.8-4.5 5.8-8.5 11s-10.9 14.3-15.5 20.1c-4.5 5.9-11.6 15.1-15.7 20.5-4.1 5.5-7.7 10.1-8 10.4-.4.3-3.7 4.5-7.5 9.5-3.8 4.9-10.1 13.1-14 18.1-3.8 5-8.1 10.6-9.5 12.5-1.4 1.8-3.6 4.7-5 6.3-1.4 1.7-4.6 5.8-7.1 9.1s-6.5 8.5-8.8 11.5c-10 13-12 15.8-14.4 20.6-1.4 2.8-3.2 7.7-4.1 10.9-2.5 9.8-1 27 3 33.2.8 1.3 1.2 2.3.9 2.3-1.3 0 7.6 11.8 11.7 15.6 19.8 18.3 52.2 18.2 71.1-.1 3.4-3.4 38.6-48.1 60.9-77.5 3.2-4.2 10.8-14 53.3-69 41.8-54.1 41.3-53.4 46.8-60.6 9.6-12.6 12.8-22.3 12.3-36.9-.5-14.6-6-26.2-17.2-36.4-12.8-11.7-30.7-16.2-47.6-11.9zM396.8 368.5c-.2.2-1.7.6-3.3.9-6.4 1.2-8.9 1.9-13.4 3.8-18 8-29.7 23.7-34.6 46.8-.8 3.9-1.4 13.7-1.5 25.5-.1 21.2-.7 181.2-1.1 337.2l-.3 102.3-3 .1c-1.7 0-4.9.2-7.1.4-2.2.2-8.1.6-13 1l-9.1.6.2-58.8c.2-32.3.4-122.3.5-199.8l.3-141-2.2-8c-5.3-19.2-16.1-33.4-30.6-40.5-11-5.3-20.1-7.1-35.1-6.6-9.3.3-13.6 1-19.1 2.8-12.9 4.4-22.3 11.4-29.3 21.8-4.3 6.5-9.8 19.7-10.6 25.7-.4 2.1-.8 4.5-1.1 5.3-.3.8-.8 59.1-1 129.5-.3 70.4-.6 165.2-.8 210.7-.1 45.5-.4 82.9-.7 83.2-.2.2-2.9 1.1-5.9 2.1-5.6 1.8-10.6 3.8-19.8 8.1-2.9 1.3-5.4 2.4-5.7 2.4-.2 0-.2-46.7 0-103.8.6-151.7.6-200.3 0-203.7-4.2-24.5-15.2-41-33-49.5-4.4-2.1-10.5-4.4-13.5-5.1-6-1.3-25.2-1.7-31.5-.6-24.5 4.4-41.6 21.4-48 47.9-2.3 9.2-2.3 10.1-2.5 84.8-.2 75.9-.7 237.6-1.1 351.9-.2 46.4.1 61.6.9 61.9.7.2 1 .7.7 1.2-.7 1.2-1.8 20.6-1.8 32 0 9.4.9 29.7 1.8 39.5.4 4.5.7 6.6 2 15.5.3 1.4.7 4.3.9 6.5.3 2.2 1.2 7.3 2 11.2.9 4 1.8 8.7 2.1 10.5.3 1.8 1.5 6.7 2.6 10.8 1.1 4.1 2.1 8.2 2.3 9 2.4 10 11.8 36.6 17.8 50.5 4.2 9.6 14.1 29.3 19.6 39 5.9 10.2 22 34.8 26 39.5.6.8 3.3 4.2 5.9 7.5 11.9 15.2 36.2 40.7 50.7 53.2l5.9 5 .1 228.4c0 125.6.4 228.6.8 228.9.5.4 417.8.5 419.8.1.3-.1.6-58.9.7-130.9 0-71.9.1-164.1.2-204.8l.1-74.1 12.2-6.8c22.3-12.4 47.7-29.9 64.3-44.5 13.1-11.5 29.5-27.8 37.9-37.4 2.8-3.3 5.8-6.7 6.7-7.6 3.2-3.3 17.7-22.6 24.1-32 15.8-23.2 30.4-51.1 41-78.5 4-10.3 9.6-26.9 10.3-30.5.3-1.4.9-3.6 1.5-5 2.5-6.2 8.5-37.5 12.5-64.5 3.7-25.9 14.1-74.6 23.4-110.5 9.2-35.1 10.2-39 17.3-63.5 3.3-11.6 6.1-21.7 6.3-22.5.4-1.3 7.8-26.9 17.7-61 1.7-5.8 3.4-11.9 3.8-13.5.4-1.7 2.4-8.6 4.5-15.5 2-6.9 3.8-13.4 4.1-14.5.2-1.1.8-3.1 1.4-4.5.5-1.4 1.4-4.3 1.9-6.5s3-11.2 5.6-20c4.8-16.5 5.2-17.9 6.4-25.5 1.2-7.3.5-21-1.3-28-4.4-16.4-15.5-29.5-31.6-37.2-22.9-11-46.6-11-63.9.2-11.5 7.4-22.4 21.5-28.1 36-.7 1.9-2.4 5.7-3.6 8.5-1.2 2.7-3.4 7.9-4.9 11.5-1.5 3.6-3.5 8.3-4.5 10.5-1 2.2-4 8.9-6.5 15-2.6 6-5.5 12.8-6.5 15-.9 2.2-6.3 14.8-12 28-5.6 13.2-11 25.8-12 28-1 2.2-5.3 12.1-9.5 22s-8.2 19.3-9 21c-.7 1.6-6.8 15.8-13.5 31.5-6.8 15.7-12.3 28.6-12.4 28.7-.1.1-7.2.4-15.8.7l-15.6.5-.2-32.7c-.1-18-.1-95.9 0-173.2.1-77.3.3-188.2.3-246.5l.2-106-2.2-7.7c-7.3-25.1-22.6-40.6-44.7-45.2-13.6-2.9-34.2-1.5-44.3 3-2.1 1-4.1 1.8-4.5 1.8-.4.1-3.7 2.2-7.2 4.8-12.6 9.1-21.3 24.5-24.5 43.3-.7 3.8-1.2 70.7-1.6 185-.3 98.4-.7 194.3-.8 213l-.2 34-4-.1c-2.2-.1-8-.5-13-.9-4.9-.4-10.3-.8-12-1l-3-.2.3-110.9c.7-242.6.7-349.1-.1-353.4-1.3-7.1-5.6-19.2-8.3-23.2-1.3-2.1-2.4-4-2.4-4.3 0-.3-1.3-2-3-3.8-1.6-1.8-3-3.5-3-3.8 0-.4-2.4-2.5-5.2-4.7-12.4-9.5-21.3-12.3-39.5-12.7-7.2-.2-13.3-.2-13.5 0zM1472.5 369.7c-14.5 3-27.5 11.5-35.5 23.3-5.5 8.1-8.3 15.3-11.6 30-.3 1.4-.5 45.5-.4 98 .1 52.5.2 156 .3 230l.2 134.4-4 .2c-3.8.2-10.2.8-22.2 2-5.2.5-5.3.4-5.4-2.3 0-1.5-.3-60.4-.5-130.8-.8-224.7-1.2-295.9-1.9-299-5.9-28.2-17.9-43.5-40-51.1-6.8-2.3-9.9-2.8-21-3-21.9-.5-36 4.3-48.2 16.5-6.8 6.8-14 19.8-15.7 28.2-.3 1.3-1 5.1-1.7 8.4-.9 4.3-1.2 21.1-1.1 60.5.1 30 .4 154.5.8 276.8l.5 222.3-9.8-.5c-5.4-.2-12.6-.5-16.1-.5l-6.3-.1-1.5-3.8c-.9-2-2.2-5.1-2.9-6.7-.8-1.7-14-32.5-29.5-68.5-15.4-36-28.8-67.1-29.7-69-.9-1.9-2.6-6-3.8-9-3.7-9.2-26-60.9-29.8-69-10.7-22.9-30.4-37.6-51.7-38.5-10.5-.4-18.8 1-30 5.1-16.4 5.9-28.5 16.2-34.9 29.7-5.2 10.8-6.1 15.7-5.7 30.7l.3 12.5 15.2 52.5c8.4 28.9 15.4 53.4 15.6 54.4.3 1.1 1.3 4.7 2.4 8 1 3.4 2.1 7 2.4 8.1.4 1.8 16.6 58.5 20.2 71 3.7 12.5 15.7 57.7 17 64 .3 1.1 1.2 4.8 2 8.2.8 3.5 2.2 9.1 3 12.5 2.2 9.5 9.2 42.7 10 47.8.4 2.5.9 5.4 1.1 6.5.2 1.1.6 3.1.9 4.5.2 1.4.7 4.1 1 6 .8 4.3 1.1 6.1 1.9 12.5.4 2.7.9 6.1 1.2 7.3.3 1.3.7 4.3 1 6.5.7 5.4 2.7 16.9 3.8 22.2.2.5.8 3.7 1.5 7 1.2 5.6 1.9 8.2 5.7 22.5.8 3 2.4 8.2 3.5 11.5 3.5 10.1 8.1 22.8 9.4 26 16.7 40.1 35.8 71.8 63.4 105 11.6 13.9 38.2 39.9 53.1 51.8 11.4 9.2 41.1 29.8 46 32 .8.4 3.8 2.1 6.5 3.7 2.8 1.6 7.4 4.1 10.3 5.6l5.2 2.7.1 73.6c.1 40.5.2 132.3.3 204.1 0 71.8.4 130.9.8 131.5.4.7 71.6 1 210.4 1l209.8-.1.2-229.2c.1-126.1.3-229.4.5-229.5 2.4-1.5 18.5-16.4 26.4-24.3 13.5-13.7 21.2-22.3 32.2-36.5 5.2-6.8 21.9-31.2 25.2-36.9 8.3-14.3 11.5-20.4 16.8-31.5 3.4-7.2 7-15 8.1-17.5 2.9-6.7 11.8-31.6 13.7-38.5.9-3.3 2.3-7.8 3-10 3-9.3 8.3-37.4 10.9-58 2-15.7 2.8-53.7 1.4-69.8-.4-4.3-.3-7.5.1-7.3.5.3.7-51.3.5-114.7-1.2-388-1.1-372.7-2.9-380.9-5.7-27.6-22.3-45.1-47.5-50.3-4.7-1-20.5-1.3-25.5-.5-9.7 1.6-11.6 2.1-16.6 3.9-18.6 7.1-32.2 25.5-36.6 49.6-.7 3.5-.7 75.8-.3 252.5.1 30 .1 55 .1 55.7-.1.8-2 .4-5.6-1.2-3-1.4-9.2-3.9-13.8-5.6-4.5-1.6-9.2-3.4-10.4-3.9l-2.3-1-.1-30.2c0-16.7-.2-76.7-.4-133.3-.2-56.7-.4-137.2-.5-179-.1-60.6-.4-77.5-1.5-83.2-5.4-27.7-20.5-45-44.6-51.2-11.3-2.9-30.6-2.3-41.6 1.3-15.2 4.9-26 14.4-33.2 29-8.3 16.9-7.6-3.9-7.3 221.9l.2 200.9-7.2-.6c-4-.3-11.1-.8-15.8-1.2-4.7-.3-8.6-.7-8.8-.9-.1-.1-.5-71-.8-157.6-.8-243.1-1.2-301.2-1.9-304.4-1.2-6-3.6-14.7-4.5-16.3-.4-1-2.1-4.4-3.7-7.6-4.2-8.9-15-19.5-24.3-23.9-13.3-6.3-31.7-8.3-47.5-5z"/></svg>